<svg version="1.1" xmlns="http://www.w3.org/2000/svg" height="20px" viewBox="0 0 97 27" xml:space="preserve"><path style="fill:#ffffff" d="m36 8.6-4.7 11.1-4.8-11.1h-4.4L30 25.9h2.3l7.9-17.3H36zM53.6 10.6c-.5-.6-1.1-1.1-1.8-1.4-1-.6-2.2-.8-3.5-.8-1.6 0-3 .4-4.2 1.2-1.3.8-2.3 1.9-3 3.2-.7 1.4-1.1 2.9-1.1 4.6 0 1.7.4 3.2 1.1 4.6.7 1.4 1.7 2.4 3 3.2 1.3.8 2.7 1.2 4.2 1.2 1.3 0 2.5-.3 3.5-.9.7-.4 1.3-.9 1.8-1.4V26h4V8.6h-4v2zm-1.1 10.5c-.9 1-2.1 1.5-3.5 1.5-1 0-1.8-.2-2.5-.7-.7-.4-1.3-1.1-1.7-1.9-.4-.8-.6-1.7-.6-2.7 0-1 .2-1.9.6-2.7.4-.8 1-1.4 1.7-1.9S48 12 49 12s1.8.2 2.6.7c.7.5 1.3 1.1 1.7 1.9s.6 1.7.6 2.7c0 1.5-.5 2.8-1.4 3.8zM71.7 18.5c0 1.3-.3 2.2-.9 2.9-.6.7-1.5 1-2.7 1-.7 0-1.4-.2-1.9-.5s-.9-.8-1.2-1.4c-.3-.6-.4-1.3-.4-2.1V8.6h-4v10c0 1.5.3 2.8 1 3.9s1.5 2 2.7 2.7c1.1.6 2.4 1 3.9 1s2.8-.3 3.9-.9c1.1-.6 2-1.5 2.7-2.7.6-1.1.9-2.5.9-4v-10h-4v9.9zM82.7 0h-4v25.9h4V0zM96.9 8.6h-4.1V1.4h-4v7.2h-4.1v3.6h4.1v13.7h4V12.2h4.1V8.6z"/><path d="M6.1 0v5.2L3 3.4l-1.4-.8L0 5.3l1.4.8L4.5 8 1.4 9.8l-1.4.7 1.6 2.8 1.4-.8 3.1-1.8v5.2h3.2v-5.2l3.1 1.8 1.4.8 1.6-2.8-1.4-.8-3.1-1.8L14 6.1l1.4-.8-1.6-2.8-1.4.8-3.1 1.9V0H6.1z" style="fill:#b1f520"/></svg>
